<svg width="55" height="50" viewBox="0 0 55 50" fill="none" xmlns="http://www.w3.org/2000/svg">
<g filter="url(#filter0_d_8_4)">
<path d="M11.016 41.024C10.248 41.024 9.43733 40.9173 8.584 40.704C7.73067 40.4907 6.96267 40.1493 6.28 39.68C5.64 39.168 5.21333 38.4853 5 37.632C4.95733 37.504 4.936 37.312 4.936 37.056C4.936 36.4587 5.064 35.7973 5.32 35.072C5.61867 34.3467 5.98133 33.8347 6.408 33.536C6.57867 33.4507 6.70667 33.4507 6.792 33.536C6.92 33.6213 6.94133 33.7067 6.856 33.792C6.81333 33.92 6.74933 34.0907 6.664 34.304C6.57867 34.4747 6.51467 34.6667 6.472 34.88C6.344 35.9893 6.57867 36.9707 7.176 37.824C7.432 38.1653 7.73067 38.4853 8.072 38.784C8.456 39.0827 8.81867 39.3387 9.16 39.552C9.45867 39.7227 9.82133 39.8507 10.248 39.936C10.6747 39.9787 11.1013 40 11.528 40C12.2107 40 12.872 39.9147 13.512 39.744C14.152 39.5733 14.6213 39.296 14.92 38.912C15.4747 38.2293 15.752 37.4613 15.752 36.608C15.752 35.968 15.5813 35.2853 15.24 34.56C14.8987 33.8347 14.3653 33.0667 13.64 32.256C13.1707 31.744 12.7227 31.1893 12.296 30.592C11.8693 29.9947 11.592 29.3547 11.464 28.672C11.4213 28.544 11.3787 28.416 11.336 28.288C11.336 28.16 11.336 28.032 11.336 27.904C10.7813 28.7147 10.2053 29.4827 9.608 30.208C9.05333 30.8907 8.56267 31.488 8.136 32C7.96533 32.256 7.816 32.384 7.688 32.384C7.60267 32.384 7.56 32.2987 7.56 32.128C7.56 31.744 7.73067 31.3387 8.072 30.912C8.41333 30.528 8.79733 30.0587 9.224 29.504C9.65067 28.9067 9.992 28.4373 10.248 28.096C10.9733 27.0293 11.5067 26.1973 11.848 25.6C12.232 24.96 12.6373 24.384 13.064 23.872C13.5333 23.3173 14.1093 22.8693 14.792 22.528C15.5173 22.1867 16.264 22.016 17.032 22.016C17.928 22.016 18.7387 22.1653 19.464 22.464C20.232 22.72 20.6373 23.4027 20.68 24.512C20.68 25.024 20.5733 25.5573 20.36 26.112C20.1893 26.624 19.9973 27.1147 19.784 27.584C19.656 27.84 19.464 28.032 19.208 28.16C18.9947 28.2453 18.888 28.2027 18.888 28.032C18.888 27.8613 18.9093 27.6693 18.952 27.456C18.9947 27.2427 19.016 27.0507 19.016 26.88C19.016 26.1547 18.888 25.5147 18.632 24.96C18.4187 24.3627 18.0987 23.936 17.672 23.68C17.2453 23.3813 16.7973 23.232 16.328 23.232C15.6453 23.232 14.984 23.5093 14.344 24.064C13.704 24.576 13.384 25.2587 13.384 26.112C13.384 26.1973 13.384 26.304 13.384 26.432C13.384 26.56 13.4053 26.6667 13.448 26.752C13.6187 27.4347 14.1307 28.2027 14.984 29.056C15.8373 29.9093 16.4987 30.656 16.968 31.296C17.7787 32.4053 18.184 33.536 18.184 34.688C18.184 35.84 17.8427 36.9067 17.16 37.888C16.52 38.8267 15.6453 39.5733 14.536 40.128C13.4693 40.7253 12.296 41.024 11.016 41.024Z" fill="#E2A302"/>
<path d="M33.507 40.32C32.4403 40.32 31.6297 39.9573 31.075 39.232C30.7337 38.72 30.3923 37.952 30.051 36.928C29.7097 35.904 29.411 34.8373 29.155 33.728C28.899 32.6187 28.6857 31.7227 28.515 31.04C27.3203 32.576 26.2537 34.112 25.315 35.648C24.419 37.184 23.8217 38.3787 23.523 39.232C23.4377 39.488 23.139 39.7013 22.627 39.872C22.1577 40.0427 21.6883 40.128 21.219 40.128C20.5363 40.128 20.2803 39.9147 20.451 39.488C21.7737 36.544 23.0323 33.7067 24.227 30.976C25.4217 28.2453 26.6803 25.4933 28.003 22.72C29.3683 19.9467 30.9043 17.0667 32.611 14.08C33.8057 11.904 35.235 9.81333 36.899 7.808C38.6057 5.76 40.419 4.096 42.339 2.816C44.259 1.49333 46.2003 0.831997 48.163 0.831997C48.803 0.831997 49.4003 1.00266 49.955 1.344C50.5097 1.68533 50.787 2.21866 50.787 2.944V4.8C50.787 4.97067 50.659 5.056 50.403 5.056C50.275 5.056 50.211 5.01333 50.211 4.928C50.211 4.24533 49.9123 3.79733 49.315 3.584C48.7177 3.328 48.1417 3.2 47.587 3.2C46.0937 3.2 44.579 3.49866 43.043 4.096C41.3363 4.77866 39.907 5.80267 38.755 7.168C37.603 8.53333 36.5363 9.984 35.555 11.52C34.275 13.4827 33.0163 15.7867 31.779 18.432C30.5417 21.0347 29.3897 23.6587 28.323 26.304C27.299 28.9493 26.3817 31.3387 25.571 33.472C26.0403 32.8747 26.5097 32.2773 26.979 31.68C27.4483 31.0827 27.8963 30.528 28.323 30.016C28.323 29.9307 28.3017 29.8453 28.259 29.76C28.259 29.6747 28.259 29.5893 28.259 29.504C28.259 29.2053 28.323 28.9493 28.451 28.736C28.579 28.5227 28.7497 28.2667 28.963 27.968C29.2617 27.5413 29.539 27.2213 29.795 27.008C30.051 26.752 30.3283 26.432 30.627 26.048L30.819 27.136C32.6963 25.216 34.339 23.8293 35.747 22.976C36.7283 22.3787 37.6883 22.08 38.627 22.08C39.5657 22.08 40.035 22.4427 40.035 23.168C40.035 23.7653 39.7363 24.512 39.139 25.408C38.9257 25.7067 38.7977 25.92 38.755 26.048C38.7123 26.176 38.627 26.304 38.499 26.432C38.4563 26.4747 38.371 26.4747 38.243 26.432C38.115 26.3893 38.051 26.3253 38.051 26.24C38.051 25.728 37.8803 25.408 37.539 25.28C37.1977 25.1093 36.8137 25.024 36.387 25.024C35.5763 25.024 34.7017 25.3227 33.763 25.92C32.867 26.4747 31.9497 27.2427 31.011 28.224C31.2243 29.2907 31.459 30.464 31.715 31.744C32.0137 32.9813 32.3337 34.1333 32.675 35.2C33.0163 36.2667 33.3363 37.056 33.635 37.568C33.8483 37.9093 34.147 38.144 34.531 38.272C34.915 38.3573 35.235 38.4 35.491 38.4C36.0883 38.4 36.771 38.1013 37.539 37.504C38.3497 36.864 39.1603 36.1173 39.971 35.264C40.8243 34.368 41.5923 33.4933 42.275 32.64C43.0003 31.7867 43.555 31.104 43.939 30.592C44.1097 30.8053 44.1523 31.0187 44.067 31.232C44.0243 31.488 43.8963 31.7653 43.683 32.064C43.5123 32.32 43.3417 32.5547 43.171 32.768C42.3177 33.8347 41.4003 34.9227 40.419 36.032C39.4377 37.0987 38.3923 38.0587 37.283 38.912C36.8137 39.296 36.2377 39.6373 35.555 39.936C34.8723 40.192 34.1897 40.32 33.507 40.32Z" fill="#E6E6E6"/>
</g>
<defs>
<filter id="filter0_d_8_4" x="0.936005" y="0.832001" width="53.851" height="48.192" filterUnits="userSpaceOnUse" color-interpolation-filters="sRGB">
<feFlood flood-opacity="0" result="BackgroundImageFix"/>
<feColorMatrix in="SourceAlpha" type="matrix" values="0 0 0 0 0 0 0 0 0 0 0 0 0 0 0 0 0 0 127 0" result="hardAlpha"/>
<feOffset dy="4"/>
<feGaussianBlur stdDeviation="2"/>
<feComposite in2="hardAlpha" operator="out"/>
<feColorMatrix type="matrix" values="0 0 0 0 0 0 0 0 0 0 0 0 0 0 0 0 0 0 0.25 0"/>
<feBlend mode="normal" in2="BackgroundImageFix" result="effect1_dropShadow_8_4"/>
<feBlend mode="normal" in="SourceGraphic" in2="effect1_dropShadow_8_4" result="shape"/>
</filter>
</defs>
</svg>
