<svg width="196" height="42" viewBox="0 0 196 42" fill="none" xmlns="http://www.w3.org/2000/svg">
<path d="M6.23475 41.024C5.46675 41.024 4.65608 40.9173 3.80275 40.704C2.94942 40.4907 2.18142 40.1493 1.49875 39.68C0.85875 39.168 0.432083 38.4853 0.21875 37.632C0.176083 37.504 0.15475 37.312 0.15475 37.056C0.15475 36.4587 0.28275 35.7973 0.53875 35.072C0.837417 34.3467 1.20008 33.8347 1.62675 33.536C1.79742 33.4507 1.92542 33.4507 2.01075 33.536C2.13875 33.6213 2.16008 33.7067 2.07475 33.792C2.03208 33.92 1.96808 34.0907 1.88275 34.304C1.79742 34.4747 1.73342 34.6667 1.69075 34.88C1.56275 35.9893 1.79742 36.9707 2.39475 37.824C2.65075 38.1653 2.94942 38.4853 3.29075 38.784C3.67475 39.0827 4.03742 39.3387 4.37875 39.552C4.67742 39.7227 5.04008 39.8507 5.46675 39.936C5.89342 39.9787 6.32008 40 6.74675 40C7.42942 40 8.09075 39.9147 8.73075 39.744C9.37075 39.5733 9.84008 39.296 10.1388 38.912C10.6934 38.2293 10.9708 37.4613 10.9708 36.608C10.9708 35.968 10.8001 35.2853 10.4588 34.56C10.1174 33.8347 9.58408 33.0667 8.85875 32.256C8.38942 31.744 7.94142 31.1893 7.51475 30.592C7.08808 29.9947 6.81075 29.3547 6.68275 28.672C6.64008 28.544 6.59742 28.416 6.55475 28.288C6.55475 28.16 6.55475 28.032 6.55475 27.904C6.00008 28.7147 5.42408 29.4827 4.82675 30.208C4.27208 30.8907 3.78142 31.488 3.35475 32C3.18408 32.256 3.03475 32.384 2.90675 32.384C2.82142 32.384 2.77875 32.2987 2.77875 32.128C2.77875 31.744 2.94942 31.3387 3.29075 30.912C3.63208 30.528 4.01608 30.0587 4.44275 29.504C4.86942 28.9067 5.21075 28.4373 5.46675 28.096C6.19208 27.0293 6.72542 26.1973 7.06675 25.6C7.45075 24.96 7.85608 24.384 8.28275 23.872C8.75208 23.3173 9.32808 22.8693 10.0108 22.528C10.7361 22.1867 11.4828 22.016 12.2508 22.016C13.1468 22.016 13.9574 22.1653 14.6828 22.464C15.4508 22.72 15.8561 23.4027 15.8988 24.512C15.8988 25.024 15.7921 25.5573 15.5788 26.112C15.4081 26.624 15.2161 27.1147 15.0028 27.584C14.8748 27.84 14.6828 28.032 14.4268 28.16C14.2134 28.2453 14.1068 28.2027 14.1068 28.032C14.1068 27.8613 14.1281 27.6693 14.1708 27.456C14.2134 27.2427 14.2348 27.0507 14.2348 26.88C14.2348 26.1547 14.1068 25.5147 13.8508 24.96C13.6374 24.3627 13.3174 23.936 12.8908 23.68C12.4641 23.3813 12.0161 23.232 11.5468 23.232C10.8641 23.232 10.2028 23.5093 9.56275 24.064C8.92275 24.576 8.60275 25.2587 8.60275 26.112C8.60275 26.1973 8.60275 26.304 8.60275 26.432C8.60275 26.56 8.62408 26.6667 8.66675 26.752C8.83742 27.4347 9.34942 28.2027 10.2028 29.056C11.0561 29.9093 11.7174 30.656 12.1868 31.296C12.9974 32.4053 13.4028 33.536 13.4028 34.688C13.4028 35.84 13.0614 36.9067 12.3788 37.888C11.7388 38.8267 10.8641 39.5733 9.75475 40.128C8.68808 40.7253 7.51475 41.024 6.23475 41.024ZM19.8298 40.192C19.4031 40.192 19.0404 40.1067 18.7418 39.936C18.4431 39.7653 18.2938 39.4453 18.2938 38.976C18.2938 38.3787 18.4431 37.6747 18.7418 36.864C19.0831 36.0533 19.4458 35.2427 19.8298 34.432C20.2138 33.6213 20.5338 32.96 20.7898 32.448C21.0031 32.064 21.2804 31.4667 21.6218 30.656C22.0058 29.8027 22.3898 28.928 22.7738 28.032C23.2004 27.0933 23.5418 26.304 23.7978 25.664C24.0964 25.024 24.2458 24.704 24.2458 24.704C23.8618 25.1307 23.3498 25.728 22.7098 26.496C22.1124 27.264 21.4511 28.0747 20.7258 28.928C20.0431 29.7387 19.4031 30.5067 18.8058 31.232C18.2511 31.9573 17.8458 32.4907 17.5898 32.832C17.4618 33.0027 17.3551 33.088 17.2698 33.088C17.1844 33.088 17.1418 32.9813 17.1418 32.768C17.1418 32.4267 17.2484 32.1067 17.4618 31.808C17.9738 31.168 18.5924 30.4 19.3177 29.504C20.0431 28.5653 20.7684 27.6267 21.4938 26.688C22.2618 25.7493 22.9231 24.9173 23.4778 24.192C23.1364 24.192 22.6884 24.2133 22.1338 24.256C21.6218 24.2987 21.1524 24.3627 20.7258 24.448C20.2991 24.4907 20.0644 24.512 20.0218 24.512C19.8084 24.512 19.8298 24.3413 20.0858 24C20.3418 23.6587 20.6831 23.3173 21.1098 22.976C21.5364 22.6347 21.8564 22.464 22.0698 22.464C22.1124 22.464 22.4538 22.4853 23.0938 22.528C23.7338 22.528 24.2031 22.528 24.5017 22.528C25.3551 21.376 26.1871 20.0533 26.9978 18.56C27.8511 17.0667 28.6831 15.424 29.4938 13.632C29.8351 13.5893 30.4111 13.3547 31.2218 12.928C32.0751 12.4587 32.7364 11.9893 33.2058 11.52C33.4191 11.3067 33.5898 11.2 33.7178 11.2C33.9738 11.2 33.9738 11.3707 33.7178 11.712C33.4191 12.0533 32.9071 12.7787 32.1818 13.888C31.4564 14.9547 30.6458 16.256 29.7498 17.792C28.8538 19.2853 28.0004 20.864 27.1898 22.528H32.3738C32.8431 22.528 33.0778 22.592 33.0778 22.72C33.0778 22.8907 32.7578 23.0613 32.1178 23.232C31.3924 23.4453 30.6244 23.5733 29.8138 23.616C29.0458 23.6587 28.3204 23.744 27.6378 23.872C26.9978 24 26.5284 24.2773 26.2298 24.704C25.9738 25.0027 25.6111 25.6427 25.1418 26.624C24.6724 27.6053 24.1604 28.736 23.6058 30.016C23.0938 31.2533 22.6458 32.512 22.2618 33.792C21.8778 35.0293 21.6431 36.0747 21.5578 36.928V37.184C21.5578 37.5253 21.6644 37.8027 21.8778 38.016C22.0911 38.2293 22.3044 38.336 22.5178 38.336C23.0724 38.336 23.7764 37.9947 24.6298 37.312C25.5258 36.6293 26.4431 35.8187 27.3818 34.88C28.3204 33.8987 29.1311 33.0027 29.8138 32.192C30.1124 31.8507 30.3684 31.5307 30.5818 31.232C30.8378 30.9333 30.9871 30.7413 31.0298 30.656C31.1151 30.8267 31.1578 30.9547 31.1578 31.04C31.1578 31.296 31.0724 31.5733 30.9018 31.872C30.7738 32.1707 30.6244 32.4267 30.4538 32.64C29.6431 33.7067 28.6618 34.8373 27.5098 36.032C26.3578 37.184 25.1204 38.1653 23.7978 38.976C22.5178 39.7867 21.1951 40.192 19.8298 40.192ZM33.5413 40.192C33.1146 40.192 32.7519 40.1067 32.4533 39.936C32.1546 39.7653 32.0052 39.4453 32.0052 38.976C32.0052 38.3787 32.1546 37.6747 32.4533 36.864C32.7946 36.0533 33.1573 35.2427 33.5413 34.432C33.9253 33.6213 34.2453 32.96 34.5013 32.448C35.0133 31.4667 35.5039 30.4853 35.9733 29.504C36.4426 28.5227 36.8479 27.6907 37.1892 27.008C37.5306 26.368 37.7013 25.9413 37.7013 25.728C37.7013 25.3867 37.4453 25.3867 36.9333 25.728C36.4639 26.0693 36.0159 26.4107 35.5893 26.752C34.6506 27.648 33.6693 28.7147 32.6453 29.952C31.6213 31.1467 30.8319 32.1067 30.2773 32.832C30.1493 33.0027 30.0426 33.088 29.9573 33.088C29.8719 33.088 29.8293 32.9813 29.8293 32.768C29.8293 32.4267 29.9359 32.1067 30.1493 31.808C30.7466 30.9547 31.4506 30.016 32.2613 28.992C33.0719 27.968 33.9039 26.9867 34.7573 26.048C35.5679 25.1947 36.3999 24.3627 37.2533 23.552C38.1066 22.7413 39.1946 22.336 40.5173 22.336C41.4133 22.336 41.8613 22.6773 41.8613 23.36C41.8613 23.9573 41.6053 24.64 41.0933 25.408C40.7946 25.8773 40.3253 26.6667 39.6853 27.776C39.0453 28.8853 38.3839 30.1013 37.7013 31.424C37.0613 32.704 36.5066 33.8987 36.0373 35.008C35.5679 36.1173 35.3333 36.928 35.3333 37.44C35.3333 38.0373 35.6319 38.336 36.2292 38.336C36.6986 38.336 37.2746 38.1013 37.9573 37.632C38.6399 37.12 39.3439 36.5227 40.0693 35.84C41.3919 34.56 42.5866 33.1733 43.6533 31.68C44.7626 30.144 45.7013 28.672 46.4693 27.264C47.2799 25.856 47.9199 24.704 48.3893 23.808C48.4746 23.6373 48.5599 23.4453 48.6453 23.232C48.7733 22.976 48.9653 22.8267 49.2213 22.784C49.4773 22.7413 50.0319 22.72 50.8853 22.72C51.7386 22.72 52.5279 22.5493 53.2533 22.208H53.3813C53.5093 22.208 53.5733 22.272 53.5733 22.4C53.5733 22.7413 53.2959 22.9973 52.7413 23.168C52.2293 23.3387 51.6319 23.8507 50.9493 24.704C50.3093 25.5573 49.6693 26.6027 49.0293 27.84C48.3893 29.0347 47.8133 30.272 47.3013 31.552C46.7893 32.832 46.4053 34.0053 46.1493 35.072C45.8933 36.1387 45.8293 36.928 45.9573 37.44C46.1279 38.0373 46.4266 38.336 46.8533 38.336C47.4079 38.336 48.1759 37.9947 49.1573 37.312C50.1813 36.6293 51.2266 35.8187 52.2933 34.88C53.3599 33.8987 54.2346 33.0027 54.9173 32.192C55.2159 31.8507 55.4933 31.5093 55.7493 31.168C56.0053 30.8267 56.1759 30.6133 56.2613 30.528C56.3039 30.5707 56.3466 30.656 56.3893 30.784C56.4319 30.8693 56.4533 30.9547 56.4533 31.04C56.4106 31.3387 56.3039 31.6373 56.1333 31.936C55.9626 32.192 55.7706 32.4267 55.5573 32.64C54.7466 33.7067 53.7653 34.8373 52.6133 36.032C51.5039 37.184 50.2879 38.1653 48.9653 38.976C47.6853 39.7867 46.3626 40.192 44.9973 40.192C44.5706 40.192 44.0799 40.0853 43.5253 39.872C43.0133 39.6587 42.7573 39.1893 42.7573 38.464C42.7573 37.9093 42.9066 37.1627 43.2053 36.224C43.5039 35.2427 43.8239 34.2827 44.1653 33.344C44.5493 32.3627 44.8693 31.6373 45.1253 31.168C44.5706 31.9787 43.8879 32.896 43.0773 33.92C42.3093 34.9013 41.5199 35.776 40.7093 36.544C39.6426 37.568 38.4906 38.4427 37.2533 39.168C36.0586 39.8507 34.8213 40.192 33.5413 40.192ZM63.7863 40.192C63.3596 40.192 62.9969 40.1067 62.6983 39.936C62.3996 39.7653 62.2503 39.4453 62.2503 38.976C62.2503 38.3787 62.3996 37.696 62.6983 36.928C62.9969 36.16 63.3383 35.4133 63.7223 34.688C64.1063 33.92 64.4476 33.3013 64.7463 32.832C63.2529 34.4107 61.6956 35.904 60.0743 37.312C59.2636 37.9947 58.3676 38.6347 57.3863 39.232C56.4049 39.8293 55.3596 40.128 54.2503 40.128C53.8236 40.128 53.5249 40 53.3543 39.744C53.1836 39.4453 53.0983 39.104 53.0983 38.72C53.0983 38.5067 53.1196 38.3573 53.1623 38.272C53.3756 36.608 53.9089 34.88 54.7623 33.088C55.6156 31.296 56.6609 29.6107 57.8983 28.032C59.1356 26.4533 60.3943 25.1733 61.6743 24.192C62.6556 23.4667 63.5943 23.0187 64.4903 22.848C65.3863 22.6347 66.3676 22.528 67.4343 22.528H69.5463C70.2289 21.376 70.9329 20.096 71.6583 18.688C72.4263 17.2373 73.1729 15.808 73.8983 14.4C74.6663 12.992 75.3703 11.7547 76.0103 10.688C77.7596 7.70133 79.6796 5.312 81.7703 3.52C83.9036 1.728 86.2716 0.831997 88.8743 0.831997C89.4289 0.831997 89.9409 1.00266 90.4103 1.344C90.8796 1.64267 91.0929 2.112 91.0503 2.752L90.9223 5.056C90.9223 5.09867 90.8796 5.16267 90.7943 5.248C90.7089 5.29066 90.6449 5.312 90.6023 5.312C90.5596 5.312 90.4956 5.26933 90.4103 5.184C90.2823 4.416 89.8983 3.84 89.2583 3.456C88.6183 3.02933 87.8289 2.816 86.8903 2.816C86.5916 2.816 86.2503 2.83733 85.8663 2.88C85.5249 2.92266 85.1836 3.008 84.8423 3.136C83.6476 3.56266 82.5169 4.43733 81.4503 5.76C80.3836 7.04 79.2316 8.74667 77.9943 10.88C77.5676 11.6907 77.0129 12.7573 76.3303 14.08C75.6476 15.36 74.9223 16.7467 74.1543 18.24C73.4289 19.7333 72.7249 21.184 72.0423 22.592C71.4023 24 70.8476 25.1947 70.3783 26.176C70.1649 26.688 69.8023 27.4773 69.2903 28.544C68.7783 29.568 68.2236 30.6987 67.6263 31.936C67.0716 33.1307 66.5809 34.24 66.1543 35.264C65.7703 36.288 65.5783 37.0133 65.5783 37.44C65.5783 38.0373 65.8343 38.336 66.3463 38.336C66.8583 38.336 67.5409 38.0373 68.3943 37.44C69.2476 36.8 70.1223 36.032 71.0183 35.136C71.9569 34.1973 72.7889 33.3013 73.5143 32.448C74.2823 31.5947 74.8156 30.9547 75.1143 30.528C75.2423 30.656 75.3063 30.8053 75.3063 30.976C75.3063 31.2747 75.1783 31.5733 74.9223 31.872C74.7089 32.1707 74.5169 32.4267 74.3463 32.64C73.5783 33.664 72.6183 34.7733 71.4663 35.968C70.3569 37.12 69.1409 38.1227 67.8183 38.976C66.4956 39.7867 65.1516 40.192 63.7863 40.192ZM56.8743 37.952C57.3863 37.952 58.0903 37.5893 58.9863 36.864C59.9249 36.096 60.9276 35.1573 61.9943 34.048C63.0609 32.896 64.0636 31.7013 65.0023 30.464C65.9409 29.184 66.7089 28.032 67.3063 27.008C67.9463 25.9413 68.2663 25.1307 68.2663 24.576C68.2663 24.1067 68.1169 23.7867 67.8183 23.616C67.5623 23.4453 67.2209 23.36 66.7943 23.36C66.1116 23.36 65.3649 23.616 64.5543 24.128C63.7863 24.5973 63.1676 25.0667 62.6983 25.536C62.1863 26.0053 61.5676 26.752 60.8423 27.776C60.1596 28.7573 59.4769 29.8453 58.7943 31.04C58.1116 32.2347 57.5356 33.3867 57.0663 34.496C56.5969 35.6053 56.3623 36.5013 56.3623 37.184C56.3623 37.696 56.5329 37.952 56.8743 37.952ZM87.2068 15.552C86.6094 15.552 86.1828 15.36 85.9268 14.976C85.7561 14.7627 85.6708 14.4853 85.6708 14.144C85.6708 13.4613 85.9908 12.9067 86.6308 12.48C87.1001 12.224 87.5268 12.096 87.9108 12.096C88.5508 12.096 88.9988 12.288 89.2548 12.672C89.4254 12.8853 89.5108 13.1627 89.5108 13.504C89.5108 14.1867 89.1694 14.7413 88.4868 15.168C88.1028 15.424 87.6761 15.552 87.2068 15.552ZM76.0708 40.192C75.6441 40.192 75.2814 40.1067 74.9828 39.936C74.7268 39.7653 74.5988 39.4453 74.5988 38.976C74.5988 38.3787 74.7481 37.6747 75.0468 36.864C75.3881 36.0533 75.7508 35.2427 76.1348 34.432C76.5614 33.6213 76.8814 32.96 77.0948 32.448C77.3934 31.8507 77.7561 31.0827 78.1828 30.144C78.6521 29.1627 79.0788 28.2453 79.4628 27.392C79.8894 26.496 80.1881 25.8773 80.3588 25.536C79.7614 26.176 79.0361 26.9867 78.1828 27.968C77.3721 28.9067 76.6041 29.824 75.8788 30.72C75.1534 31.616 74.5988 32.32 74.2148 32.832C74.0868 33.0027 73.9801 33.088 73.8948 33.088C73.8094 33.088 73.7668 32.9813 73.7668 32.768C73.7668 32.4267 73.8734 32.1067 74.0868 31.808C74.8974 30.784 75.7934 29.632 76.7748 28.352C77.7988 27.072 78.7161 25.8987 79.5268 24.832C80.3374 23.7227 80.8494 22.9973 81.0628 22.656C81.5321 22.5707 82.2148 22.4427 83.1108 22.272C84.0494 22.1013 84.6894 21.8667 85.0308 21.568C85.1588 21.44 85.2868 21.376 85.4148 21.376C85.5001 21.376 85.5428 21.4613 85.5428 21.632C85.5854 21.76 85.5428 21.9093 85.4148 22.08C85.1588 22.3787 84.7108 23.104 84.0708 24.256C83.4308 25.408 82.7481 26.688 82.0228 28.096C81.3401 29.4613 80.7001 30.6987 80.1028 31.808C79.5054 32.96 78.9934 34.0693 78.5668 35.136C78.1401 36.2027 77.9268 36.9707 77.9268 37.44C77.9268 38.0373 78.2254 38.336 78.8228 38.336C79.3774 38.336 80.0814 37.9947 80.9348 37.312C81.8308 36.6293 82.7268 35.8187 83.6228 34.88C84.5188 33.8987 85.3081 33.0027 85.9908 32.192C86.2041 31.936 86.4601 31.6373 86.7588 31.296C87.1001 30.912 87.3134 30.6773 87.3988 30.592C87.4841 30.6773 87.5268 30.8267 87.5268 31.04C87.4841 31.3387 87.3774 31.6373 87.2068 31.936C87.0361 32.192 86.8654 32.4267 86.6948 32.64C85.7988 33.7493 84.8174 34.9013 83.7508 36.096C82.6841 37.248 81.5108 38.2293 80.2308 39.04C78.9508 39.808 77.5641 40.192 76.0708 40.192ZM87.2313 40.128C86.5486 40.128 85.9299 40 85.3753 39.744C84.8633 39.4453 84.6073 38.8267 84.6073 37.888C84.6073 36.3947 84.9913 34.9013 85.7593 33.408C86.5273 31.872 87.3166 30.528 88.1273 29.376C88.8526 28.3947 89.6633 27.4773 90.5593 26.624C91.4979 25.728 92.5006 24.96 93.5673 24.32C94.2499 23.8933 95.1673 23.4453 96.3193 22.976C97.5139 22.464 98.5166 22.208 99.3273 22.208C100.01 22.208 100.607 22.4 101.119 22.784C101.631 23.1253 101.887 23.7653 101.887 24.704C101.887 26.1547 101.503 27.648 100.735 29.184C100.01 30.6773 99.2419 32 98.4313 33.152C98.0473 33.664 97.6633 34.1547 97.2793 34.624C96.8953 35.0507 96.4686 35.4987 95.9993 35.968C97.5779 35.968 99.0286 35.52 100.351 34.624C101.674 33.6853 102.826 32.5547 103.807 31.232L103.935 31.104C104.063 31.104 104.127 31.232 104.127 31.488C104.127 31.7867 104.042 32.064 103.871 32.32C103.018 33.5147 101.951 34.5813 100.671 35.52C99.3913 36.416 97.9406 36.864 96.3193 36.864C96.1486 36.864 95.9779 36.864 95.8073 36.864C95.6366 36.864 95.4659 36.8427 95.2953 36.8C92.9059 39.0187 90.2179 40.128 87.2313 40.128ZM88.8953 39.04C89.4926 39.04 90.1326 38.8267 90.8153 38.4C91.5406 37.9733 92.0953 37.568 92.4792 37.184C93.2046 36.4587 93.8659 35.6907 94.4633 34.88C95.0606 34.0267 95.6153 33.1733 96.1273 32.32C96.7246 31.296 97.3219 30.08 97.9193 28.672C98.5166 27.264 98.8153 25.9413 98.8153 24.704C98.8153 23.7227 98.4739 23.232 97.7913 23.232C97.2366 23.232 96.5539 23.4667 95.7433 23.936C94.9753 24.4053 94.3993 24.832 94.0153 25.216C92.5646 26.7093 91.3486 28.3307 90.3673 30.08C89.8126 31.0613 89.2153 32.2133 88.5753 33.536C87.9353 34.8587 87.6153 36.0747 87.6153 37.184C87.6153 37.3547 87.6153 37.5253 87.6153 37.696C87.6579 37.824 87.7006 37.9733 87.7433 38.144C87.9139 38.7413 88.2979 39.04 88.8953 39.04ZM125.413 40.32C124.347 40.32 123.536 39.9573 122.981 39.232C122.64 38.72 122.299 37.952 121.957 36.928C121.616 35.904 121.317 34.8373 121.061 33.728C120.805 32.6187 120.592 31.7227 120.421 31.04C119.227 32.576 118.16 34.112 117.221 35.648C116.325 37.184 115.728 38.3787 115.429 39.232C115.344 39.488 115.045 39.7013 114.533 39.872C114.064 40.0427 113.595 40.128 113.125 40.128C112.443 40.128 112.187 39.9147 112.357 39.488C113.68 36.544 114.939 33.7067 116.133 30.976C117.328 28.2453 118.587 25.4933 119.909 22.72C121.275 19.9467 122.811 17.0667 124.517 14.08C125.712 11.904 127.141 9.81333 128.805 7.808C130.512 5.76 132.325 4.096 134.245 2.816C136.165 1.49333 138.107 0.831997 140.069 0.831997C140.709 0.831997 141.307 1.00266 141.861 1.344C142.416 1.68533 142.693 2.21866 142.693 2.944V4.8C142.693 4.97067 142.565 5.056 142.309 5.056C142.181 5.056 142.117 5.01333 142.117 4.928C142.117 4.24533 141.819 3.79733 141.221 3.584C140.624 3.328 140.048 3.2 139.493 3.2C138 3.2 136.485 3.49866 134.949 4.096C133.243 4.77866 131.813 5.80267 130.661 7.168C129.509 8.53333 128.443 9.984 127.461 11.52C126.181 13.4827 124.923 15.7867 123.685 18.432C122.448 21.0347 121.296 23.6587 120.229 26.304C119.205 28.9493 118.288 31.3387 117.477 33.472C117.947 32.8747 118.416 32.2773 118.885 31.68C119.355 31.0827 119.803 30.528 120.229 30.016C120.229 29.9307 120.208 29.8453 120.165 29.76C120.165 29.6747 120.165 29.5893 120.165 29.504C120.165 29.2053 120.229 28.9493 120.357 28.736C120.485 28.5227 120.656 28.2667 120.869 27.968C121.168 27.5413 121.445 27.2213 121.701 27.008C121.957 26.752 122.235 26.432 122.533 26.048L122.725 27.136C124.603 25.216 126.245 23.8293 127.653 22.976C128.635 22.3787 129.595 22.08 130.533 22.08C131.472 22.08 131.941 22.4427 131.941 23.168C131.941 23.7653 131.643 24.512 131.045 25.408C130.832 25.7067 130.704 25.92 130.661 26.048C130.619 26.176 130.533 26.304 130.405 26.432C130.363 26.4747 130.277 26.4747 130.149 26.432C130.021 26.3893 129.957 26.3253 129.957 26.24C129.957 25.728 129.787 25.408 129.445 25.28C129.104 25.1093 128.72 25.024 128.293 25.024C127.483 25.024 126.608 25.3227 125.669 25.92C124.773 26.4747 123.856 27.2427 122.917 28.224C123.131 29.2907 123.365 30.464 123.621 31.744C123.92 32.9813 124.24 34.1333 124.581 35.2C124.923 36.2667 125.243 37.056 125.541 37.568C125.755 37.9093 126.053 38.144 126.437 38.272C126.821 38.3573 127.141 38.4 127.397 38.4C127.995 38.4 128.677 38.1013 129.445 37.504C130.256 36.864 131.067 36.1173 131.877 35.264C132.731 34.368 133.499 33.4933 134.181 32.64C134.907 31.7867 135.461 31.104 135.845 30.592C136.016 30.8053 136.059 31.0187 135.973 31.232C135.931 31.488 135.803 31.7653 135.589 32.064C135.419 32.32 135.248 32.5547 135.077 32.768C134.224 33.8347 133.307 34.9227 132.325 36.032C131.344 37.0987 130.299 38.0587 129.189 38.912C128.72 39.296 128.144 39.6373 127.461 39.936C126.779 40.192 126.096 40.32 125.413 40.32ZM143.411 40.192C142.985 40.192 142.622 40.1067 142.323 39.936C142.025 39.7653 141.875 39.4453 141.875 38.976C141.875 38.3787 142.025 37.696 142.323 36.928C142.622 36.16 142.963 35.4133 143.347 34.688C143.731 33.92 144.073 33.3013 144.371 32.832C142.878 34.4107 141.321 35.904 139.699 37.312C138.889 37.9947 137.993 38.6347 137.011 39.232C136.03 39.8293 134.985 40.128 133.875 40.128C133.449 40.128 133.15 40 132.979 39.744C132.809 39.4453 132.723 39.104 132.723 38.72C132.723 38.5067 132.745 38.3573 132.787 38.272C133.001 36.608 133.534 34.88 134.387 33.088C135.241 31.296 136.286 29.6107 137.523 28.032C138.761 26.4533 140.019 25.1733 141.299 24.192C142.75 23.0827 144.35 22.528 146.099 22.528H153.459C153.673 22.528 153.779 22.6133 153.779 22.784C153.779 23.1253 153.587 23.296 153.203 23.296C152.777 23.296 152.35 23.5733 151.923 24.128C151.497 24.64 151.177 25.0667 150.963 25.408C150.665 25.8773 150.195 26.6667 149.555 27.776C148.915 28.8853 148.254 30.1013 147.571 31.424C146.931 32.704 146.377 33.8987 145.907 35.008C145.438 36.1173 145.203 36.928 145.203 37.44C145.203 38.0373 145.502 38.336 146.099 38.336C146.739 38.336 147.465 38.0373 148.275 37.44C149.086 36.8427 149.897 36.1173 150.707 35.264C151.561 34.368 152.329 33.4933 153.011 32.64C153.737 31.744 154.313 31.04 154.739 30.528C154.995 30.784 154.974 31.1467 154.675 31.616C154.419 32.0427 154.185 32.384 153.971 32.64C153.118 33.7493 152.137 34.9013 151.027 36.096C149.918 37.248 148.702 38.2293 147.379 39.04C146.099 39.808 144.777 40.192 143.411 40.192ZM136.499 37.952C137.011 37.952 137.715 37.5893 138.611 36.864C139.55 36.096 140.553 35.1573 141.619 34.048C142.686 32.896 143.689 31.7013 144.627 30.464C145.566 29.184 146.334 28.032 146.931 27.008C147.571 25.9413 147.891 25.1307 147.891 24.576C147.891 24.1067 147.742 23.7867 147.443 23.616C147.187 23.4453 146.846 23.36 146.419 23.36C145.737 23.36 144.99 23.616 144.179 24.128C143.411 24.5973 142.793 25.0667 142.323 25.536C141.811 26.0053 141.193 26.752 140.467 27.776C139.785 28.7573 139.102 29.8453 138.419 31.04C137.737 32.2347 137.161 33.3867 136.691 34.496C136.222 35.6053 135.987 36.5013 135.987 37.184C135.987 37.696 136.158 37.952 136.499 37.952ZM157.744 40.128C156.464 40.128 155.589 39.8293 155.12 39.232C154.65 38.592 154.416 37.824 154.416 36.928C154.416 35.7333 154.672 34.4533 155.184 33.088C155.738 31.7227 156.186 30.656 156.528 29.888C155.973 30.4853 155.44 31.0613 154.928 31.616C154.416 32.1707 154.053 32.576 153.84 32.832C153.712 33.0027 153.605 33.088 153.52 33.088C153.434 33.088 153.392 32.9813 153.392 32.768C153.392 32.4267 153.498 32.1067 153.712 31.808C154.309 31.04 154.992 30.2293 155.76 29.376C156.528 28.5227 157.274 27.6267 158 26.688C158.853 25.1093 159.792 23.2747 160.816 21.184C161.882 19.0507 162.97 16.8747 164.08 14.656C165.232 12.3947 166.341 10.3253 167.408 8.448C168.517 6.528 169.498 4.992 170.352 3.84C171.077 3.54133 171.76 3.15733 172.4 2.688C173.082 2.21866 173.744 1.792 174.384 1.408C175.066 0.981331 175.77 0.767998 176.496 0.767998C176.965 0.767998 177.306 0.895997 177.52 1.152C177.776 1.408 177.946 1.70667 178.032 2.048C178.074 2.176 178.096 2.41066 178.096 2.752C178.096 3.73333 177.754 4.928 177.072 6.336C176.432 7.744 175.664 9.13066 174.768 10.496C173.914 11.8187 173.168 12.9067 172.528 13.76C170.821 16.1493 169.072 18.3253 167.28 20.288C165.488 22.208 163.866 23.8293 162.416 25.152C161.008 26.432 159.984 27.3707 159.344 27.968C159.045 28.5227 158.682 29.2693 158.256 30.208C157.872 31.104 157.53 32.064 157.232 33.088C156.933 34.0693 156.784 34.9867 156.784 35.84C156.784 36.5653 156.954 37.184 157.296 37.696C157.637 38.1653 158.213 38.4 159.024 38.4C159.152 38.4 159.28 38.4 159.408 38.4C159.536 38.4 159.685 38.3787 159.856 38.336C160.581 38.208 161.37 37.8027 162.224 37.12C163.077 36.4373 163.93 35.648 164.784 34.752C165.637 33.856 166.405 33.0027 167.088 32.192C167.386 31.8507 167.664 31.5307 167.92 31.232C168.176 30.8907 168.346 30.656 168.432 30.528C168.73 30.8267 168.709 31.2107 168.368 31.68C168.069 32.1067 167.813 32.4693 167.6 32.768C167.301 33.152 166.874 33.6853 166.32 34.368C165.765 35.008 165.125 35.712 164.4 36.48C163.589 37.2907 162.586 38.1013 161.392 38.912C160.197 39.7227 158.981 40.128 157.744 40.128ZM160.432 25.408C161.754 24.2987 163.418 22.72 165.424 20.672C167.472 18.5813 169.477 16.064 171.44 13.12C171.653 12.7787 171.994 12.2027 172.464 11.392C172.976 10.5813 173.488 9.664 174 8.64C174.554 7.57333 175.024 6.54933 175.408 5.568C175.792 4.544 175.984 3.66933 175.984 2.944C175.984 2.26133 175.792 1.92 175.408 1.92C174.938 1.92 174.32 2.32533 173.552 3.136C172.656 4.07467 171.632 5.46133 170.48 7.296C169.37 9.088 168.197 11.0933 166.96 13.312C165.722 15.5307 164.528 17.7067 163.376 19.84C162.266 21.9733 161.285 23.8293 160.432 25.408ZM178.663 40.32C177.597 40.32 176.786 39.9573 176.231 39.232C175.89 38.72 175.549 37.952 175.207 36.928C174.866 35.904 174.567 34.8373 174.311 33.728C174.055 32.6187 173.842 31.7227 173.671 31.04C172.477 32.576 171.41 34.112 170.471 35.648C169.575 37.184 168.978 38.3787 168.679 39.232C168.594 39.488 168.295 39.7013 167.783 39.872C167.314 40.0427 166.845 40.128 166.375 40.128C165.693 40.128 165.437 39.9147 165.607 39.488C166.93 36.544 168.189 33.7067 169.383 30.976C170.578 28.2453 171.837 25.4933 173.159 22.72C174.525 19.9467 176.061 17.0667 177.767 14.08C178.962 11.904 180.391 9.81333 182.055 7.808C183.762 5.76 185.575 4.096 187.495 2.816C189.415 1.49333 191.357 0.831997 193.319 0.831997C193.959 0.831997 194.557 1.00266 195.111 1.344C195.666 1.68533 195.943 2.21866 195.943 2.944V4.8C195.943 4.97067 195.815 5.056 195.559 5.056C195.431 5.056 195.367 5.01333 195.367 4.928C195.367 4.24533 195.069 3.79733 194.471 3.584C193.874 3.328 193.298 3.2 192.743 3.2C191.25 3.2 189.735 3.49866 188.199 4.096C186.493 4.77866 185.063 5.80267 183.911 7.168C182.759 8.53333 181.693 9.984 180.711 11.52C179.431 13.4827 178.173 15.7867 176.935 18.432C175.698 21.0347 174.546 23.6587 173.479 26.304C172.455 28.9493 171.538 31.3387 170.727 33.472C171.197 32.8747 171.666 32.2773 172.135 31.68C172.605 31.0827 173.053 30.528 173.479 30.016C173.479 29.9307 173.458 29.8453 173.415 29.76C173.415 29.6747 173.415 29.5893 173.415 29.504C173.415 29.2053 173.479 28.9493 173.607 28.736C173.735 28.5227 173.906 28.2667 174.119 27.968C174.418 27.5413 174.695 27.2213 174.951 27.008C175.207 26.752 175.485 26.432 175.783 26.048L175.975 27.136C177.853 25.216 179.495 23.8293 180.903 22.976C181.885 22.3787 182.845 22.08 183.783 22.08C184.722 22.08 185.191 22.4427 185.191 23.168C185.191 23.7653 184.893 24.512 184.295 25.408C184.082 25.7067 183.954 25.92 183.911 26.048C183.869 26.176 183.783 26.304 183.655 26.432C183.613 26.4747 183.527 26.4747 183.399 26.432C183.271 26.3893 183.207 26.3253 183.207 26.24C183.207 25.728 183.037 25.408 182.695 25.28C182.354 25.1093 181.97 25.024 181.543 25.024C180.733 25.024 179.858 25.3227 178.919 25.92C178.023 26.4747 177.106 27.2427 176.167 28.224C176.381 29.2907 176.615 30.464 176.871 31.744C177.17 32.9813 177.49 34.1333 177.831 35.2C178.173 36.2667 178.493 37.056 178.791 37.568C179.005 37.9093 179.303 38.144 179.687 38.272C180.071 38.3573 180.391 38.4 180.647 38.4C181.245 38.4 181.927 38.1013 182.695 37.504C183.506 36.864 184.317 36.1173 185.127 35.264C185.981 34.368 186.749 33.4933 187.431 32.64C188.157 31.7867 188.711 31.104 189.095 30.592C189.266 30.8053 189.309 31.0187 189.223 31.232C189.181 31.488 189.053 31.7653 188.839 32.064C188.669 32.32 188.498 32.5547 188.327 32.768C187.474 33.8347 186.557 34.9227 185.575 36.032C184.594 37.0987 183.549 38.0587 182.439 38.912C181.97 39.296 181.394 39.6373 180.711 39.936C180.029 40.192 179.346 40.32 178.663 40.32Z" fill="black"/>
</svg>
