<svg width="245" height="80" viewBox="0 0 245 80" fill="none" xmlns="http://www.w3.org/2000/svg">
<g filter="url(#filter0_d_4_2)">
<path d="M51.2348 52.024C50.4668 52.024 49.6561 51.9173 48.8028 51.704C47.9494 51.4907 47.1814 51.1493 46.4988 50.68C45.8588 50.168 45.4321 49.4853 45.2188 48.632C45.1761 48.504 45.1547 48.312 45.1547 48.056C45.1547 47.4587 45.2828 46.7973 45.5388 46.072C45.8374 45.3467 46.2001 44.8347 46.6268 44.536C46.7974 44.4507 46.9254 44.4507 47.0108 44.536C47.1388 44.6213 47.1601 44.7067 47.0748 44.792C47.0321 44.92 46.9681 45.0907 46.8828 45.304C46.7974 45.4747 46.7334 45.6667 46.6908 45.88C46.5628 46.9893 46.7974 47.9707 47.3948 48.824C47.6508 49.1653 47.9494 49.4853 48.2908 49.784C48.6748 50.0827 49.0374 50.3387 49.3788 50.552C49.6774 50.7227 50.0401 50.8507 50.4668 50.936C50.8934 50.9787 51.3201 51 51.7468 51C52.4294 51 53.0908 50.9147 53.7308 50.744C54.3708 50.5733 54.8401 50.296 55.1388 49.912C55.6934 49.2293 55.9708 48.4613 55.9708 47.608C55.9708 46.968 55.8001 46.2853 55.4588 45.56C55.1174 44.8347 54.5841 44.0667 53.8588 43.256C53.3894 42.744 52.9414 42.1893 52.5148 41.592C52.0881 40.9947 51.8108 40.3547 51.6828 39.672C51.6401 39.544 51.5974 39.416 51.5548 39.288C51.5548 39.16 51.5548 39.032 51.5548 38.904C51.0001 39.7147 50.4241 40.4827 49.8268 41.208C49.2721 41.8907 48.7814 42.488 48.3548 43C48.1841 43.256 48.0348 43.384 47.9068 43.384C47.8214 43.384 47.7788 43.2987 47.7788 43.128C47.7788 42.744 47.9494 42.3387 48.2908 41.912C48.6321 41.528 49.0161 41.0587 49.4427 40.504C49.8694 39.9067 50.2108 39.4373 50.4668 39.096C51.1921 38.0293 51.7254 37.1973 52.0668 36.6C52.4508 35.96 52.8561 35.384 53.2828 34.872C53.7521 34.3173 54.3281 33.8693 55.0108 33.528C55.7361 33.1867 56.4828 33.016 57.2508 33.016C58.1468 33.016 58.9574 33.1653 59.6828 33.464C60.4508 33.72 60.8561 34.4027 60.8988 35.512C60.8988 36.024 60.7921 36.5573 60.5788 37.112C60.4081 37.624 60.2161 38.1147 60.0028 38.584C59.8748 38.84 59.6828 39.032 59.4268 39.16C59.2134 39.2453 59.1068 39.2027 59.1068 39.032C59.1068 38.8613 59.1281 38.6693 59.1708 38.456C59.2134 38.2427 59.2348 38.0507 59.2348 37.88C59.2348 37.1547 59.1068 36.5147 58.8508 35.96C58.6374 35.3627 58.3174 34.936 57.8908 34.68C57.4641 34.3813 57.0161 34.232 56.5468 34.232C55.8641 34.232 55.2028 34.5093 54.5628 35.064C53.9228 35.576 53.6028 36.2587 53.6028 37.112C53.6028 37.1973 53.6028 37.304 53.6028 37.432C53.6028 37.56 53.6241 37.6667 53.6667 37.752C53.8374 38.4347 54.3494 39.2027 55.2028 40.056C56.0561 40.9093 56.7174 41.656 57.1868 42.296C57.9974 43.4053 58.4028 44.536 58.4028 45.688C58.4028 46.84 58.0614 47.9067 57.3788 48.888C56.7388 49.8267 55.8641 50.5733 54.7548 51.128C53.6881 51.7253 52.5148 52.024 51.2348 52.024ZM64.8298 51.192C64.4031 51.192 64.0404 51.1067 63.7418 50.936C63.4431 50.7653 63.2938 50.4453 63.2938 49.976C63.2938 49.3787 63.4431 48.6747 63.7418 47.864C64.0831 47.0533 64.4458 46.2427 64.8298 45.432C65.2138 44.6213 65.5338 43.96 65.7898 43.448C66.0031 43.064 66.2804 42.4667 66.6218 41.656C67.0058 40.8027 67.3898 39.928 67.7738 39.032C68.2004 38.0933 68.5418 37.304 68.7978 36.664C69.0964 36.024 69.2458 35.704 69.2458 35.704C68.8618 36.1307 68.3498 36.728 67.7098 37.496C67.1124 38.264 66.4511 39.0747 65.7258 39.928C65.0431 40.7387 64.4031 41.5067 63.8058 42.232C63.2511 42.9573 62.8458 43.4907 62.5898 43.832C62.4618 44.0027 62.3551 44.088 62.2698 44.088C62.1844 44.088 62.1418 43.9813 62.1418 43.768C62.1418 43.4267 62.2484 43.1067 62.4618 42.808C62.9738 42.168 63.5924 41.4 64.3177 40.504C65.0431 39.5653 65.7684 38.6267 66.4938 37.688C67.2618 36.7493 67.9231 35.9173 68.4778 35.192C68.1364 35.192 67.6884 35.2133 67.1338 35.256C66.6218 35.2987 66.1524 35.3627 65.7258 35.448C65.2991 35.4907 65.0644 35.512 65.0218 35.512C64.8084 35.512 64.8298 35.3413 65.0858 35C65.3418 34.6587 65.6831 34.3173 66.1098 33.976C66.5364 33.6347 66.8564 33.464 67.0698 33.464C67.1124 33.464 67.4538 33.4853 68.0938 33.528C68.7338 33.528 69.2031 33.528 69.5017 33.528C70.3551 32.376 71.1871 31.0533 71.9978 29.56C72.8511 28.0667 73.6831 26.424 74.4938 24.632C74.8351 24.5893 75.4111 24.3547 76.2218 23.928C77.0751 23.4587 77.7364 22.9893 78.2058 22.52C78.4191 22.3067 78.5898 22.2 78.7178 22.2C78.9738 22.2 78.9738 22.3707 78.7178 22.712C78.4191 23.0533 77.9071 23.7787 77.1818 24.888C76.4564 25.9547 75.6458 27.256 74.7498 28.792C73.8538 30.2853 73.0004 31.864 72.1898 33.528H77.3738C77.8431 33.528 78.0778 33.592 78.0778 33.72C78.0778 33.8907 77.7578 34.0613 77.1178 34.232C76.3924 34.4453 75.6244 34.5733 74.8138 34.616C74.0458 34.6587 73.3204 34.744 72.6378 34.872C71.9978 35 71.5284 35.2773 71.2298 35.704C70.9738 36.0027 70.6111 36.6427 70.1418 37.624C69.6724 38.6053 69.1604 39.736 68.6058 41.016C68.0938 42.2533 67.6458 43.512 67.2618 44.792C66.8778 46.0293 66.6431 47.0747 66.5578 47.928V48.184C66.5578 48.5253 66.6644 48.8027 66.8778 49.016C67.0911 49.2293 67.3044 49.336 67.5178 49.336C68.0724 49.336 68.7764 48.9947 69.6298 48.312C70.5258 47.6293 71.4431 46.8187 72.3818 45.88C73.3204 44.8987 74.1311 44.0027 74.8138 43.192C75.1124 42.8507 75.3684 42.5307 75.5818 42.232C75.8378 41.9333 75.9871 41.7413 76.0298 41.656C76.1151 41.8267 76.1578 41.9547 76.1578 42.04C76.1578 42.296 76.0724 42.5733 75.9018 42.872C75.7738 43.1707 75.6244 43.4267 75.4538 43.64C74.6431 44.7067 73.6618 45.8373 72.5098 47.032C71.3578 48.184 70.1204 49.1653 68.7978 49.976C67.5178 50.7867 66.1951 51.192 64.8298 51.192ZM78.5413 51.192C78.1146 51.192 77.7519 51.1067 77.4533 50.936C77.1546 50.7653 77.0052 50.4453 77.0052 49.976C77.0052 49.3787 77.1546 48.6747 77.4533 47.864C77.7946 47.0533 78.1573 46.2427 78.5413 45.432C78.9253 44.6213 79.2453 43.96 79.5013 43.448C80.0133 42.4667 80.5039 41.4853 80.9733 40.504C81.4426 39.5227 81.8479 38.6907 82.1892 38.008C82.5306 37.368 82.7013 36.9413 82.7013 36.728C82.7013 36.3867 82.4453 36.3867 81.9333 36.728C81.4639 37.0693 81.0159 37.4107 80.5893 37.752C79.6506 38.648 78.6693 39.7147 77.6453 40.952C76.6213 42.1467 75.8319 43.1067 75.2773 43.832C75.1493 44.0027 75.0426 44.088 74.9573 44.088C74.8719 44.088 74.8293 43.9813 74.8293 43.768C74.8293 43.4267 74.9359 43.1067 75.1493 42.808C75.7466 41.9547 76.4506 41.016 77.2613 39.992C78.0719 38.968 78.9039 37.9867 79.7573 37.048C80.5679 36.1947 81.3999 35.3627 82.2533 34.552C83.1066 33.7413 84.1946 33.336 85.5173 33.336C86.4133 33.336 86.8613 33.6773 86.8613 34.36C86.8613 34.9573 86.6053 35.64 86.0933 36.408C85.7946 36.8773 85.3253 37.6667 84.6853 38.776C84.0453 39.8853 83.3839 41.1013 82.7013 42.424C82.0613 43.704 81.5066 44.8987 81.0373 46.008C80.5679 47.1173 80.3333 47.928 80.3333 48.44C80.3333 49.0373 80.6319 49.336 81.2292 49.336C81.6986 49.336 82.2746 49.1013 82.9573 48.632C83.6399 48.12 84.3439 47.5227 85.0693 46.84C86.3919 45.56 87.5866 44.1733 88.6533 42.68C89.7626 41.144 90.7013 39.672 91.4693 38.264C92.2799 36.856 92.9199 35.704 93.3893 34.808C93.4746 34.6373 93.5599 34.4453 93.6453 34.232C93.7733 33.976 93.9653 33.8267 94.2213 33.784C94.4773 33.7413 95.0319 33.72 95.8853 33.72C96.7386 33.72 97.5279 33.5493 98.2533 33.208H98.3813C98.5093 33.208 98.5733 33.272 98.5733 33.4C98.5733 33.7413 98.2959 33.9973 97.7413 34.168C97.2293 34.3387 96.6319 34.8507 95.9493 35.704C95.3093 36.5573 94.6693 37.6027 94.0293 38.84C93.3893 40.0347 92.8133 41.272 92.3013 42.552C91.7893 43.832 91.4053 45.0053 91.1493 46.072C90.8933 47.1387 90.8293 47.928 90.9573 48.44C91.1279 49.0373 91.4266 49.336 91.8533 49.336C92.4079 49.336 93.1759 48.9947 94.1573 48.312C95.1813 47.6293 96.2266 46.8187 97.2933 45.88C98.3599 44.8987 99.2346 44.0027 99.9173 43.192C100.216 42.8507 100.493 42.5093 100.749 42.168C101.005 41.8267 101.176 41.6133 101.261 41.528C101.304 41.5707 101.347 41.656 101.389 41.784C101.432 41.8693 101.453 41.9547 101.453 42.04C101.411 42.3387 101.304 42.6373 101.133 42.936C100.963 43.192 100.771 43.4267 100.557 43.64C99.7466 44.7067 98.7653 45.8373 97.6133 47.032C96.5039 48.184 95.2879 49.1653 93.9653 49.976C92.6853 50.7867 91.3626 51.192 89.9973 51.192C89.5706 51.192 89.0799 51.0853 88.5253 50.872C88.0133 50.6587 87.7573 50.1893 87.7573 49.464C87.7573 48.9093 87.9066 48.1627 88.2053 47.224C88.5039 46.2427 88.8239 45.2827 89.1653 44.344C89.5493 43.3627 89.8693 42.6373 90.1253 42.168C89.5706 42.9787 88.8879 43.896 88.0773 44.92C87.3093 45.9013 86.5199 46.776 85.7093 47.544C84.6426 48.568 83.4906 49.4427 82.2533 50.168C81.0586 50.8507 79.8213 51.192 78.5413 51.192ZM108.786 51.192C108.36 51.192 107.997 51.1067 107.698 50.936C107.4 50.7653 107.25 50.4453 107.25 49.976C107.25 49.3787 107.4 48.696 107.698 47.928C107.997 47.16 108.338 46.4133 108.722 45.688C109.106 44.92 109.448 44.3013 109.746 43.832C108.253 45.4107 106.696 46.904 105.074 48.312C104.264 48.9947 103.368 49.6347 102.386 50.232C101.405 50.8293 100.36 51.128 99.2503 51.128C98.8236 51.128 98.5249 51 98.3543 50.744C98.1836 50.4453 98.0983 50.104 98.0983 49.72C98.0983 49.5067 98.1196 49.3573 98.1623 49.272C98.3756 47.608 98.9089 45.88 99.7623 44.088C100.616 42.296 101.661 40.6107 102.898 39.032C104.136 37.4533 105.394 36.1733 106.674 35.192C107.656 34.4667 108.594 34.0187 109.49 33.848C110.386 33.6347 111.368 33.528 112.434 33.528H114.546C115.229 32.376 115.933 31.096 116.658 29.688C117.426 28.2373 118.173 26.808 118.898 25.4C119.666 23.992 120.37 22.7547 121.01 21.688C122.76 18.7013 124.68 16.312 126.77 14.52C128.904 12.728 131.272 11.832 133.874 11.832C134.429 11.832 134.941 12.0027 135.41 12.344C135.88 12.6427 136.093 13.112 136.05 13.752L135.922 16.056C135.922 16.0987 135.88 16.1627 135.794 16.248C135.709 16.2907 135.645 16.312 135.602 16.312C135.56 16.312 135.496 16.2693 135.41 16.184C135.282 15.416 134.898 14.84 134.258 14.456C133.618 14.0293 132.829 13.816 131.89 13.816C131.592 13.816 131.25 13.8373 130.866 13.88C130.525 13.9227 130.184 14.008 129.842 14.136C128.648 14.5627 127.517 15.4373 126.45 16.76C125.384 18.04 124.232 19.7467 122.994 21.88C122.568 22.6907 122.013 23.7573 121.33 25.08C120.648 26.36 119.922 27.7467 119.154 29.24C118.429 30.7333 117.725 32.184 117.042 33.592C116.402 35 115.848 36.1947 115.378 37.176C115.165 37.688 114.802 38.4773 114.29 39.544C113.778 40.568 113.224 41.6987 112.626 42.936C112.072 44.1307 111.581 45.24 111.154 46.264C110.77 47.288 110.578 48.0133 110.578 48.44C110.578 49.0373 110.834 49.336 111.346 49.336C111.858 49.336 112.541 49.0373 113.394 48.44C114.248 47.8 115.122 47.032 116.018 46.136C116.957 45.1973 117.789 44.3013 118.514 43.448C119.282 42.5947 119.816 41.9547 120.114 41.528C120.242 41.656 120.306 41.8053 120.306 41.976C120.306 42.2747 120.178 42.5733 119.922 42.872C119.709 43.1707 119.517 43.4267 119.346 43.64C118.578 44.664 117.618 45.7733 116.466 46.968C115.357 48.12 114.141 49.1227 112.818 49.976C111.496 50.7867 110.152 51.192 108.786 51.192ZM101.874 48.952C102.386 48.952 103.09 48.5893 103.986 47.864C104.925 47.096 105.928 46.1573 106.994 45.048C108.061 43.896 109.064 42.7013 110.002 41.464C110.941 40.184 111.709 39.032 112.306 38.008C112.946 36.9413 113.266 36.1307 113.266 35.576C113.266 35.1067 113.117 34.7867 112.818 34.616C112.562 34.4453 112.221 34.36 111.794 34.36C111.112 34.36 110.365 34.616 109.554 35.128C108.786 35.5973 108.168 36.0667 107.698 36.536C107.186 37.0053 106.568 37.752 105.842 38.776C105.16 39.7573 104.477 40.8453 103.794 42.04C103.112 43.2347 102.536 44.3867 102.066 45.496C101.597 46.6053 101.362 47.5013 101.362 48.184C101.362 48.696 101.533 48.952 101.874 48.952ZM132.207 26.552C131.609 26.552 131.183 26.36 130.927 25.976C130.756 25.7627 130.671 25.4853 130.671 25.144C130.671 24.4613 130.991 23.9067 131.631 23.48C132.1 23.224 132.527 23.096 132.911 23.096C133.551 23.096 133.999 23.288 134.255 23.672C134.425 23.8853 134.511 24.1627 134.511 24.504C134.511 25.1867 134.169 25.7413 133.487 26.168C133.103 26.424 132.676 26.552 132.207 26.552ZM121.071 51.192C120.644 51.192 120.281 51.1067 119.983 50.936C119.727 50.7653 119.599 50.4453 119.599 49.976C119.599 49.3787 119.748 48.6747 120.047 47.864C120.388 47.0533 120.751 46.2427 121.135 45.432C121.561 44.6213 121.881 43.96 122.095 43.448C122.393 42.8507 122.756 42.0827 123.183 41.144C123.652 40.1627 124.079 39.2453 124.463 38.392C124.889 37.496 125.188 36.8773 125.359 36.536C124.761 37.176 124.036 37.9867 123.183 38.968C122.372 39.9067 121.604 40.824 120.879 41.72C120.153 42.616 119.599 43.32 119.215 43.832C119.087 44.0027 118.98 44.088 118.895 44.088C118.809 44.088 118.767 43.9813 118.767 43.768C118.767 43.4267 118.873 43.1067 119.087 42.808C119.897 41.784 120.793 40.632 121.775 39.352C122.799 38.072 123.716 36.8987 124.527 35.832C125.337 34.7227 125.849 33.9973 126.063 33.656C126.532 33.5707 127.215 33.4427 128.111 33.272C129.049 33.1013 129.689 32.8667 130.031 32.568C130.159 32.44 130.287 32.376 130.415 32.376C130.5 32.376 130.543 32.4613 130.543 32.632C130.585 32.76 130.543 32.9093 130.415 33.08C130.159 33.3787 129.711 34.104 129.071 35.256C128.431 36.408 127.748 37.688 127.023 39.096C126.34 40.4613 125.7 41.6987 125.103 42.808C124.505 43.96 123.993 45.0693 123.567 46.136C123.14 47.2027 122.927 47.9707 122.927 48.44C122.927 49.0373 123.225 49.336 123.823 49.336C124.377 49.336 125.081 48.9947 125.935 48.312C126.831 47.6293 127.727 46.8187 128.623 45.88C129.519 44.8987 130.308 44.0027 130.991 43.192C131.204 42.936 131.46 42.6373 131.759 42.296C132.1 41.912 132.313 41.6773 132.399 41.592C132.484 41.6773 132.527 41.8267 132.527 42.04C132.484 42.3387 132.377 42.6373 132.207 42.936C132.036 43.192 131.865 43.4267 131.695 43.64C130.799 44.7493 129.817 45.9013 128.751 47.096C127.684 48.248 126.511 49.2293 125.231 50.04C123.951 50.808 122.564 51.192 121.071 51.192ZM132.231 51.128C131.549 51.128 130.93 51 130.375 50.744C129.863 50.4453 129.607 49.8267 129.607 48.888C129.607 47.3947 129.991 45.9013 130.759 44.408C131.527 42.872 132.317 41.528 133.127 40.376C133.853 39.3947 134.663 38.4773 135.559 37.624C136.498 36.728 137.501 35.96 138.567 35.32C139.25 34.8933 140.167 34.4453 141.319 33.976C142.514 33.464 143.517 33.208 144.327 33.208C145.01 33.208 145.607 33.4 146.119 33.784C146.631 34.1253 146.887 34.7653 146.887 35.704C146.887 37.1547 146.503 38.648 145.735 40.184C145.01 41.6773 144.242 43 143.431 44.152C143.047 44.664 142.663 45.1547 142.279 45.624C141.895 46.0507 141.469 46.4987 140.999 46.968C142.578 46.968 144.029 46.52 145.351 45.624C146.674 44.6853 147.826 43.5547 148.807 42.232L148.935 42.104C149.063 42.104 149.127 42.232 149.127 42.488C149.127 42.7867 149.042 43.064 148.871 43.32C148.018 44.5147 146.951 45.5813 145.671 46.52C144.391 47.416 142.941 47.864 141.319 47.864C141.149 47.864 140.978 47.864 140.807 47.864C140.637 47.864 140.466 47.8427 140.295 47.8C137.906 50.0187 135.218 51.128 132.231 51.128ZM133.895 50.04C134.493 50.04 135.133 49.8267 135.815 49.4C136.541 48.9733 137.095 48.568 137.479 48.184C138.205 47.4587 138.866 46.6907 139.463 45.88C140.061 45.0267 140.615 44.1733 141.127 43.32C141.725 42.296 142.322 41.08 142.919 39.672C143.517 38.264 143.815 36.9413 143.815 35.704C143.815 34.7227 143.474 34.232 142.791 34.232C142.237 34.232 141.554 34.4667 140.743 34.936C139.975 35.4053 139.399 35.832 139.015 36.216C137.565 37.7093 136.349 39.3307 135.367 41.08C134.813 42.0613 134.215 43.2133 133.575 44.536C132.935 45.8587 132.615 47.0747 132.615 48.184C132.615 48.3547 132.615 48.5253 132.615 48.696C132.658 48.824 132.701 48.9733 132.743 49.144C132.914 49.7413 133.298 50.04 133.895 50.04Z" fill="#6E27C8"/>
<path d="M170.413 51.32C169.347 51.32 168.536 50.9573 167.981 50.232C167.64 49.72 167.299 48.952 166.957 47.928C166.616 46.904 166.317 45.8373 166.061 44.728C165.805 43.6187 165.592 42.7227 165.421 42.04C164.227 43.576 163.16 45.112 162.221 46.648C161.325 48.184 160.728 49.3787 160.429 50.232C160.344 50.488 160.045 50.7013 159.533 50.872C159.064 51.0427 158.595 51.128 158.125 51.128C157.443 51.128 157.187 50.9147 157.357 50.488C158.68 47.544 159.939 44.7067 161.133 41.976C162.328 39.2453 163.587 36.4933 164.909 33.72C166.275 30.9467 167.811 28.0667 169.517 25.08C170.712 22.904 172.141 20.8133 173.805 18.808C175.512 16.76 177.325 15.096 179.245 13.816C181.165 12.4933 183.107 11.832 185.069 11.832C185.709 11.832 186.307 12.0027 186.861 12.344C187.416 12.6853 187.693 13.2187 187.693 13.944V15.8C187.693 15.9707 187.565 16.056 187.309 16.056C187.181 16.056 187.117 16.0133 187.117 15.928C187.117 15.2453 186.819 14.7973 186.221 14.584C185.624 14.328 185.048 14.2 184.493 14.2C183 14.2 181.485 14.4987 179.949 15.096C178.243 15.7787 176.813 16.8027 175.661 18.168C174.509 19.5333 173.443 20.984 172.461 22.52C171.181 24.4827 169.923 26.7867 168.685 29.432C167.448 32.0347 166.296 34.6587 165.229 37.304C164.205 39.9493 163.288 42.3387 162.477 44.472C162.947 43.8747 163.416 43.2773 163.885 42.68C164.355 42.0827 164.803 41.528 165.229 41.016C165.229 40.9307 165.208 40.8453 165.165 40.76C165.165 40.6747 165.165 40.5893 165.165 40.504C165.165 40.2053 165.229 39.9493 165.357 39.736C165.485 39.5227 165.656 39.2667 165.869 38.968C166.168 38.5413 166.445 38.2213 166.701 38.008C166.957 37.752 167.235 37.432 167.533 37.048L167.725 38.136C169.603 36.216 171.245 34.8293 172.653 33.976C173.635 33.3787 174.595 33.08 175.533 33.08C176.472 33.08 176.941 33.4427 176.941 34.168C176.941 34.7653 176.643 35.512 176.045 36.408C175.832 36.7067 175.704 36.92 175.661 37.048C175.619 37.176 175.533 37.304 175.405 37.432C175.363 37.4747 175.277 37.4747 175.149 37.432C175.021 37.3893 174.957 37.3253 174.957 37.24C174.957 36.728 174.787 36.408 174.445 36.28C174.104 36.1093 173.72 36.024 173.293 36.024C172.483 36.024 171.608 36.3227 170.669 36.92C169.773 37.4747 168.856 38.2427 167.917 39.224C168.131 40.2907 168.365 41.464 168.621 42.744C168.92 43.9813 169.24 45.1333 169.581 46.2C169.923 47.2667 170.243 48.056 170.541 48.568C170.755 48.9093 171.053 49.144 171.437 49.272C171.821 49.3573 172.141 49.4 172.397 49.4C172.995 49.4 173.677 49.1013 174.445 48.504C175.256 47.864 176.067 47.1173 176.877 46.264C177.731 45.368 178.499 44.4933 179.181 43.64C179.907 42.7867 180.461 42.104 180.845 41.592C181.016 41.8053 181.059 42.0187 180.973 42.232C180.931 42.488 180.803 42.7653 180.589 43.064C180.419 43.32 180.248 43.5547 180.077 43.768C179.224 44.8347 178.307 45.9227 177.325 47.032C176.344 48.0987 175.299 49.0587 174.189 49.912C173.72 50.296 173.144 50.6373 172.461 50.936C171.779 51.192 171.096 51.32 170.413 51.32ZM188.411 51.192C187.985 51.192 187.622 51.1067 187.323 50.936C187.025 50.7653 186.875 50.4453 186.875 49.976C186.875 49.3787 187.025 48.696 187.323 47.928C187.622 47.16 187.963 46.4133 188.347 45.688C188.731 44.92 189.073 44.3013 189.371 43.832C187.878 45.4107 186.321 46.904 184.699 48.312C183.889 48.9947 182.993 49.6347 182.011 50.232C181.03 50.8293 179.985 51.128 178.875 51.128C178.449 51.128 178.15 51 177.979 50.744C177.809 50.4453 177.723 50.104 177.723 49.72C177.723 49.5067 177.745 49.3573 177.787 49.272C178.001 47.608 178.534 45.88 179.387 44.088C180.241 42.296 181.286 40.6107 182.523 39.032C183.761 37.4533 185.019 36.1733 186.299 35.192C187.75 34.0827 189.35 33.528 191.099 33.528H198.459C198.673 33.528 198.779 33.6133 198.779 33.784C198.779 34.1253 198.587 34.296 198.203 34.296C197.777 34.296 197.35 34.5733 196.923 35.128C196.497 35.64 196.177 36.0667 195.963 36.408C195.665 36.8773 195.195 37.6667 194.555 38.776C193.915 39.8853 193.254 41.1013 192.571 42.424C191.931 43.704 191.377 44.8987 190.907 46.008C190.438 47.1173 190.203 47.928 190.203 48.44C190.203 49.0373 190.502 49.336 191.099 49.336C191.739 49.336 192.465 49.0373 193.275 48.44C194.086 47.8427 194.897 47.1173 195.707 46.264C196.561 45.368 197.329 44.4933 198.011 43.64C198.737 42.744 199.313 42.04 199.739 41.528C199.995 41.784 199.974 42.1467 199.675 42.616C199.419 43.0427 199.185 43.384 198.971 43.64C198.118 44.7493 197.137 45.9013 196.027 47.096C194.918 48.248 193.702 49.2293 192.379 50.04C191.099 50.808 189.777 51.192 188.411 51.192ZM181.499 48.952C182.011 48.952 182.715 48.5893 183.611 47.864C184.55 47.096 185.553 46.1573 186.619 45.048C187.686 43.896 188.689 42.7013 189.627 41.464C190.566 40.184 191.334 39.032 191.931 38.008C192.571 36.9413 192.891 36.1307 192.891 35.576C192.891 35.1067 192.742 34.7867 192.443 34.616C192.187 34.4453 191.846 34.36 191.419 34.36C190.737 34.36 189.99 34.616 189.179 35.128C188.411 35.5973 187.793 36.0667 187.323 36.536C186.811 37.0053 186.193 37.752 185.467 38.776C184.785 39.7573 184.102 40.8453 183.419 42.04C182.737 43.2347 182.161 44.3867 181.691 45.496C181.222 46.6053 180.987 47.5013 180.987 48.184C180.987 48.696 181.158 48.952 181.499 48.952ZM202.744 51.128C201.464 51.128 200.589 50.8293 200.12 50.232C199.65 49.592 199.416 48.824 199.416 47.928C199.416 46.7333 199.672 45.4533 200.184 44.088C200.738 42.7227 201.186 41.656 201.528 40.888C200.973 41.4853 200.44 42.0613 199.928 42.616C199.416 43.1707 199.053 43.576 198.84 43.832C198.712 44.0027 198.605 44.088 198.52 44.088C198.434 44.088 198.392 43.9813 198.392 43.768C198.392 43.4267 198.498 43.1067 198.712 42.808C199.309 42.04 199.992 41.2293 200.76 40.376C201.528 39.5227 202.274 38.6267 203 37.688C203.853 36.1093 204.792 34.2747 205.816 32.184C206.882 30.0507 207.97 27.8747 209.08 25.656C210.232 23.3947 211.341 21.3253 212.408 19.448C213.517 17.528 214.498 15.992 215.352 14.84C216.077 14.5413 216.76 14.1573 217.4 13.688C218.082 13.2187 218.744 12.792 219.384 12.408C220.066 11.9813 220.77 11.768 221.496 11.768C221.965 11.768 222.306 11.896 222.52 12.152C222.776 12.408 222.946 12.7067 223.032 13.048C223.074 13.176 223.096 13.4107 223.096 13.752C223.096 14.7333 222.754 15.928 222.072 17.336C221.432 18.744 220.664 20.1307 219.768 21.496C218.914 22.8187 218.168 23.9067 217.528 24.76C215.821 27.1493 214.072 29.3253 212.28 31.288C210.488 33.208 208.866 34.8293 207.416 36.152C206.008 37.432 204.984 38.3707 204.344 38.968C204.045 39.5227 203.682 40.2693 203.256 41.208C202.872 42.104 202.53 43.064 202.232 44.088C201.933 45.0693 201.784 45.9867 201.784 46.84C201.784 47.5653 201.954 48.184 202.296 48.696C202.637 49.1653 203.213 49.4 204.024 49.4C204.152 49.4 204.28 49.4 204.408 49.4C204.536 49.4 204.685 49.3787 204.856 49.336C205.581 49.208 206.37 48.8027 207.224 48.12C208.077 47.4373 208.93 46.648 209.784 45.752C210.637 44.856 211.405 44.0027 212.088 43.192C212.386 42.8507 212.664 42.5307 212.92 42.232C213.176 41.8907 213.346 41.656 213.432 41.528C213.73 41.8267 213.709 42.2107 213.368 42.68C213.069 43.1067 212.813 43.4693 212.6 43.768C212.301 44.152 211.874 44.6853 211.32 45.368C210.765 46.008 210.125 46.712 209.4 47.48C208.589 48.2907 207.586 49.1013 206.392 49.912C205.197 50.7227 203.981 51.128 202.744 51.128ZM205.432 36.408C206.754 35.2987 208.418 33.72 210.424 31.672C212.472 29.5813 214.477 27.064 216.44 24.12C216.653 23.7787 216.994 23.2027 217.464 22.392C217.976 21.5813 218.488 20.664 219 19.64C219.554 18.5733 220.024 17.5493 220.408 16.568C220.792 15.544 220.984 14.6693 220.984 13.944C220.984 13.2613 220.792 12.92 220.408 12.92C219.938 12.92 219.32 13.3253 218.552 14.136C217.656 15.0747 216.632 16.4613 215.48 18.296C214.37 20.088 213.197 22.0933 211.96 24.312C210.722 26.5307 209.528 28.7067 208.376 30.84C207.266 32.9733 206.285 34.8293 205.432 36.408ZM223.663 51.32C222.597 51.32 221.786 50.9573 221.231 50.232C220.89 49.72 220.549 48.952 220.207 47.928C219.866 46.904 219.567 45.8373 219.311 44.728C219.055 43.6187 218.842 42.7227 218.671 42.04C217.477 43.576 216.41 45.112 215.471 46.648C214.575 48.184 213.978 49.3787 213.679 50.232C213.594 50.488 213.295 50.7013 212.783 50.872C212.314 51.0427 211.845 51.128 211.375 51.128C210.693 51.128 210.437 50.9147 210.607 50.488C211.93 47.544 213.189 44.7067 214.383 41.976C215.578 39.2453 216.837 36.4933 218.159 33.72C219.525 30.9467 221.061 28.0667 222.767 25.08C223.962 22.904 225.391 20.8133 227.055 18.808C228.762 16.76 230.575 15.096 232.495 13.816C234.415 12.4933 236.357 11.832 238.319 11.832C238.959 11.832 239.557 12.0027 240.111 12.344C240.666 12.6853 240.943 13.2187 240.943 13.944V15.8C240.943 15.9707 240.815 16.056 240.559 16.056C240.431 16.056 240.367 16.0133 240.367 15.928C240.367 15.2453 240.069 14.7973 239.471 14.584C238.874 14.328 238.298 14.2 237.743 14.2C236.25 14.2 234.735 14.4987 233.199 15.096C231.493 15.7787 230.063 16.8027 228.911 18.168C227.759 19.5333 226.693 20.984 225.711 22.52C224.431 24.4827 223.173 26.7867 221.935 29.432C220.698 32.0347 219.546 34.6587 218.479 37.304C217.455 39.9493 216.538 42.3387 215.727 44.472C216.197 43.8747 216.666 43.2773 217.135 42.68C217.605 42.0827 218.053 41.528 218.479 41.016C218.479 40.9307 218.458 40.8453 218.415 40.76C218.415 40.6747 218.415 40.5893 218.415 40.504C218.415 40.2053 218.479 39.9493 218.607 39.736C218.735 39.5227 218.906 39.2667 219.119 38.968C219.418 38.5413 219.695 38.2213 219.951 38.008C220.207 37.752 220.485 37.432 220.783 37.048L220.975 38.136C222.853 36.216 224.495 34.8293 225.903 33.976C226.885 33.3787 227.845 33.08 228.783 33.08C229.722 33.08 230.191 33.4427 230.191 34.168C230.191 34.7653 229.893 35.512 229.295 36.408C229.082 36.7067 228.954 36.92 228.911 37.048C228.869 37.176 228.783 37.304 228.655 37.432C228.613 37.4747 228.527 37.4747 228.399 37.432C228.271 37.3893 228.207 37.3253 228.207 37.24C228.207 36.728 228.037 36.408 227.695 36.28C227.354 36.1093 226.97 36.024 226.543 36.024C225.733 36.024 224.858 36.3227 223.919 36.92C223.023 37.4747 222.106 38.2427 221.167 39.224C221.381 40.2907 221.615 41.464 221.871 42.744C222.17 43.9813 222.49 45.1333 222.831 46.2C223.173 47.2667 223.493 48.056 223.791 48.568C224.005 48.9093 224.303 49.144 224.687 49.272C225.071 49.3573 225.391 49.4 225.647 49.4C226.245 49.4 226.927 49.1013 227.695 48.504C228.506 47.864 229.317 47.1173 230.127 46.264C230.981 45.368 231.749 44.4933 232.431 43.64C233.157 42.7867 233.711 42.104 234.095 41.592C234.266 41.8053 234.309 42.0187 234.223 42.232C234.181 42.488 234.053 42.7653 233.839 43.064C233.669 43.32 233.498 43.5547 233.327 43.768C232.474 44.8347 231.557 45.9227 230.575 47.032C229.594 48.0987 228.549 49.0587 227.439 49.912C226.97 50.296 226.394 50.6373 225.711 50.936C225.029 51.192 224.346 51.32 223.663 51.32Z" fill="#FCF7F7"/>
</g>
<g filter="url(#filter1_d_4_2)">
<path d="M24 14L28.7148 28.5106H43.9722L31.6287 37.4787L36.3435 51.9894L24 43.0213L11.6565 51.9894L16.3713 37.4787L4.02781 28.5106H19.2852L24 14Z" fill="#F5C108"/>
</g>
<defs>
<filter id="filter0_d_4_2" x="41.1547" y="11.768" width="203.789" height="48.256" filterUnits="userSpaceOnUse" color-interpolation-filters="sRGB">
<feFlood flood-opacity="0" result="BackgroundImageFix"/>
<feColorMatrix in="SourceAlpha" type="matrix" values="0 0 0 0 0 0 0 0 0 0 0 0 0 0 0 0 0 0 127 0" result="hardAlpha"/>
<feOffset dy="4"/>
<feGaussianBlur stdDeviation="2"/>
<feComposite in2="hardAlpha" operator="out"/>
<feColorMatrix type="matrix" values="0 0 0 0 0 0 0 0 0 0 0 0 0 0 0 0 0 0 0.25 0"/>
<feBlend mode="normal" in2="BackgroundImageFix" result="effect1_dropShadow_4_2"/>
<feBlend mode="normal" in="SourceGraphic" in2="effect1_dropShadow_4_2" result="shape"/>
</filter>
<filter id="filter1_d_4_2" x="0.027832" y="14" width="47.9443" height="45.9894" filterUnits="userSpaceOnUse" color-interpolation-filters="sRGB">
<feFlood flood-opacity="0" result="BackgroundImageFix"/>
<feColorMatrix in="SourceAlpha" type="matrix" values="0 0 0 0 0 0 0 0 0 0 0 0 0 0 0 0 0 0 127 0" result="hardAlpha"/>
<feOffset dy="4"/>
<feGaussianBlur stdDeviation="2"/>
<feComposite in2="hardAlpha" operator="out"/>
<feColorMatrix type="matrix" values="0 0 0 0 0 0 0 0 0 0 0 0 0 0 0 0 0 0 0.25 0"/>
<feBlend mode="normal" in2="BackgroundImageFix" result="effect1_dropShadow_4_2"/>
<feBlend mode="normal" in="SourceGraphic" in2="effect1_dropShadow_4_2" result="shape"/>
</filter>
</defs>
</svg>
