<svg width="200" height="109" viewBox="0 0 200 109" fill="none" xmlns="http://www.w3.org/2000/svg">
<path d="M190 8.79001V100.21H10V8.79001H190ZM200 0H0V109H200V0Z" fill="#FEC63E"/>
<path d="M62.032 39.952L59.824 39.44C58.3947 39.0987 57.328 38.4907 56.624 37.616C55.9413 36.72 55.6 35.664 55.6 34.448C55.6 33.552 55.792 32.7307 56.176 31.984C56.5813 31.216 57.2107 30.608 58.064 30.16C58.9173 29.6907 60.0267 29.456 61.392 29.456C62.864 29.456 64.0587 29.6907 64.976 30.16C65.8933 30.6293 66.544 31.248 66.928 32.016C67.312 32.784 67.4293 33.6053 67.28 34.48L63.76 35.12C64.0587 33.6693 63.9733 32.5493 63.504 31.76C63.056 30.9707 62.2987 30.576 61.232 30.576C60.4853 30.576 59.8667 30.8 59.376 31.248C58.8853 31.6747 58.64 32.2933 58.64 33.104C58.64 33.8507 58.8533 34.512 59.28 35.088C59.7067 35.6427 60.336 36.016 61.168 36.208L63.376 36.72C64.9547 37.0827 66.096 37.6587 66.8 38.448C67.504 39.216 67.856 40.176 67.856 41.328C67.856 42.7573 67.3227 43.952 66.256 44.912C65.2107 45.8507 63.6427 46.32 61.552 46.32C60.8267 46.32 60.0267 46.2133 59.152 46C58.2987 45.7653 57.5093 45.3493 56.784 44.752C56.08 44.1547 55.568 43.3013 55.248 42.192L57.328 41.36C57.4773 42.768 57.9573 43.76 58.768 44.336C59.6 44.912 60.528 45.2 61.552 45.2C62.512 45.2 63.2907 44.9867 63.888 44.56C64.5067 44.112 64.816 43.472 64.816 42.64C64.816 42.064 64.6133 41.5413 64.208 41.072C63.824 40.5813 63.0987 40.208 62.032 39.952ZM82.463 42.672C82.1857 43.9733 81.6523 44.912 80.863 45.488C80.095 46.0427 79.1563 46.32 78.047 46.32C76.9163 46.32 75.9883 46.0747 75.263 45.584C74.5377 45.072 74.0043 44.4 73.663 43.568C73.3217 42.736 73.151 41.8507 73.151 40.912V32.464C73.151 31.7387 73.119 31.312 73.055 31.184C72.991 31.0347 72.7883 30.9387 72.447 30.896L70.687 30.672V29.776H73.151V26.064L76.831 25.328V29.776H81.951V30.896H76.831V41.552C76.831 42.9173 77.0017 43.8667 77.343 44.4C77.6843 44.912 78.1217 45.168 78.655 45.168C79.2097 45.168 79.6363 44.9547 79.935 44.528C80.255 44.1013 80.4577 43.3227 80.543 42.192L82.463 42.672ZM102.8 45.104V46H96.848V43.184C96.2507 44.272 95.4827 45.072 94.544 45.584C93.6053 46.0747 92.656 46.32 91.696 46.32C90.1813 46.32 88.976 45.8187 88.08 44.816C87.184 43.792 86.736 42.3733 86.736 40.56V32.464C86.736 31.7387 86.704 31.312 86.64 31.184C86.576 31.0347 86.3733 30.9387 86.032 30.896L84.272 30.672V29.776H90.416V40.528C90.416 42 90.6187 43.0773 91.024 43.76C91.4507 44.4213 92.0587 44.752 92.848 44.752C93.1893 44.752 93.584 44.6667 94.032 44.496C94.5013 44.304 94.9707 43.9733 95.44 43.504C95.9093 43.0133 96.3147 42.32 96.656 41.424V32.464C96.656 31.7387 96.624 31.3013 96.56 31.152C96.496 31.0027 96.2933 30.9173 95.952 30.896L93.552 30.672V29.776H100.336V43.312C100.336 44.0373 100.368 44.4747 100.432 44.624C100.496 44.752 100.699 44.8373 101.04 44.88L102.8 45.104ZM122.494 45.104V46H116.542V43.344C115.945 44.3253 115.273 45.072 114.526 45.584C113.801 46.0747 112.937 46.32 111.934 46.32C110.142 46.32 108.713 45.616 107.646 44.208C106.601 42.7787 106.078 40.784 106.078 38.224V37.584C106.078 35.1093 106.686 33.136 107.902 31.664C109.14 30.192 110.825 29.456 112.958 29.456C114.238 29.456 115.369 29.776 116.35 30.416V25.008C116.35 24.2827 116.318 23.856 116.254 23.728C116.19 23.5787 115.988 23.4827 115.646 23.44L113.886 23.216V22.32H120.03V43.312C120.03 44.0373 120.062 44.4747 120.126 44.624C120.19 44.752 120.393 44.8373 120.734 44.88L122.494 45.104ZM110.014 39.184C110.014 41.168 110.26 42.6187 110.75 43.536C111.241 44.4533 111.913 44.912 112.766 44.912C113.3 44.912 113.854 44.6987 114.43 44.272C115.028 43.824 115.668 42.928 116.35 41.584V31.92C115.54 31.1093 114.548 30.704 113.374 30.704C112.201 30.704 111.348 31.2373 110.814 32.304C110.281 33.3493 110.014 34.7893 110.014 36.624V39.184ZM128.989 27.024C128.328 27.024 127.794 26.8213 127.389 26.416C126.984 25.9893 126.781 25.4453 126.781 24.784C126.781 24.1227 126.984 23.5893 127.389 23.184C127.794 22.7787 128.328 22.576 128.989 22.576C129.629 22.576 130.162 22.7787 130.589 23.184C131.016 23.5893 131.229 24.1227 131.229 24.784C131.229 25.4453 131.016 25.9893 130.589 26.416C130.162 26.8213 129.629 27.024 128.989 27.024ZM124.701 30.672V29.776H130.845V43.312C130.845 44.0373 130.877 44.4747 130.941 44.624C131.005 44.752 131.208 44.8373 131.549 44.88L133.309 45.104V46H124.701V45.104L126.461 44.88C126.802 44.8373 127.005 44.752 127.069 44.624C127.133 44.4747 127.165 44.0373 127.165 43.312V32.464C127.165 31.7387 127.133 31.312 127.069 31.184C127.005 31.0347 126.802 30.9387 126.461 30.896L124.701 30.672ZM151.089 37.552V38.192C151.089 40.6453 150.449 42.6187 149.169 44.112C147.91 45.584 146.107 46.32 143.761 46.32C141.414 46.32 139.601 45.584 138.321 44.112C137.062 42.6187 136.433 40.6453 136.433 38.192V37.552C136.433 35.0987 137.062 33.136 138.321 31.664C139.601 30.192 141.414 29.456 143.761 29.456C146.107 29.456 147.91 30.192 149.169 31.664C150.449 33.136 151.089 35.0987 151.089 37.552ZM147.153 36.912C147.153 34.6293 146.865 33.008 146.289 32.048C145.713 31.0667 144.87 30.576 143.761 30.576C142.673 30.576 141.83 31.0667 141.233 32.048C140.657 33.008 140.369 34.6293 140.369 36.912V38.832C140.369 41.0933 140.657 42.7253 141.233 43.728C141.83 44.7093 142.673 45.2 143.761 45.2C144.87 45.2 145.713 44.7093 146.289 43.728C146.865 42.7253 147.153 41.0933 147.153 38.832V36.912ZM54.512 61.216V60.32H60.656V75.84L66.288 70.464C67.0347 69.76 67.4293 69.3333 67.472 69.184C67.536 69.0347 67.3867 68.9387 67.024 68.896L65.264 68.672V67.776H71.824V68.672L70.064 68.896C69.872 68.9173 69.712 68.96 69.584 69.024C69.456 69.088 69.2747 69.2267 69.04 69.44C68.8053 69.632 68.432 69.9733 67.92 70.464L64.848 73.408L69.392 81.312C69.6907 81.8027 69.9147 82.1547 70.064 82.368C70.2133 82.56 70.352 82.688 70.48 82.752C70.6293 82.7947 70.8107 82.8373 71.024 82.88L72.784 83.104V84H66.672L62.224 75.904L60.656 77.408V81.312C60.656 82.0373 60.688 82.4747 60.752 82.624C60.816 82.752 61.0187 82.8373 61.36 82.88L63.12 83.104V84H54.512V83.104L56.272 82.88C56.6133 82.8373 56.816 82.752 56.88 82.624C56.944 82.4747 56.976 82.0373 56.976 81.312V63.008C56.976 62.2827 56.944 61.856 56.88 61.728C56.816 61.5787 56.6133 61.4827 56.272 61.44L54.512 61.216ZM90.8285 83.2C90.4872 83.52 90.0712 83.7867 89.5805 84C89.1112 84.2133 88.5352 84.32 87.8525 84.32C86.9778 84.32 86.2418 84.128 85.6445 83.744C85.0685 83.36 84.6845 82.816 84.4925 82.112C83.7885 82.88 83.0098 83.4453 82.1565 83.808C81.3245 84.1493 80.4712 84.32 79.5965 84.32C78.1245 84.32 77.0258 83.9147 76.3005 83.104C75.5752 82.272 75.2125 81.2373 75.2125 80C75.2125 78.7413 75.6712 77.728 76.5885 76.96C77.5058 76.1707 79.1272 75.776 81.4525 75.776H84.3645V73.184C84.3645 71.4133 84.1298 70.208 83.6605 69.568C83.2125 68.9067 82.5832 68.576 81.7725 68.576C81.2392 68.576 80.7485 68.7147 80.3005 68.992C79.8525 69.248 79.5325 69.7387 79.3405 70.464C79.1698 71.168 79.2018 72.192 79.4365 73.536L75.9165 73.024C75.7458 72.0427 75.8525 71.136 76.2365 70.304C76.6418 69.4507 77.3138 68.768 78.2525 68.256C79.1912 67.7227 80.3858 67.456 81.8365 67.456C83.4792 67.456 84.7485 67.7227 85.6445 68.256C86.5405 68.7893 87.1592 69.4933 87.5005 70.368C87.8632 71.2427 88.0445 72.1813 88.0445 73.184V80.576C88.0445 81.664 88.1405 82.3467 88.3325 82.624C88.5245 82.9013 88.7378 83.04 88.9725 83.04C89.3565 83.04 89.7832 82.816 90.2525 82.368L90.8285 83.2ZM81.0045 82.624C81.5592 82.624 82.1032 82.4853 82.6365 82.208C83.1912 81.9093 83.7672 81.3653 84.3645 80.576V76.896H81.9645C80.9192 76.896 80.1618 77.1413 79.6925 77.632C79.2232 78.1227 78.9885 78.8907 78.9885 79.936C78.9885 80.7893 79.1592 81.4507 79.5005 81.92C79.8418 82.3893 80.3432 82.624 81.0045 82.624ZM92.4632 61.216V60.32H98.6072V81.312C98.6072 82.0373 98.6392 82.4747 98.7032 82.624C98.7672 82.752 98.9699 82.8373 99.3112 82.88L101.071 83.104V84H92.4632V83.104L94.2232 82.88C94.5646 82.8373 94.7672 82.752 94.8312 82.624C94.8952 82.4747 94.9272 82.0373 94.9272 81.312V63.008C94.9272 62.2827 94.8952 61.856 94.8312 61.728C94.7672 61.5787 94.5646 61.4827 94.2232 61.44L92.4632 61.216ZM103.048 61.216V60.32H109.192V75.84L114.824 70.464C115.571 69.76 115.966 69.3333 116.008 69.184C116.072 69.0347 115.923 68.9387 115.56 68.896L113.8 68.672V67.776H120.36V68.672L118.6 68.896C118.408 68.9173 118.248 68.96 118.12 69.024C117.992 69.088 117.811 69.2267 117.576 69.44C117.342 69.632 116.968 69.9733 116.456 70.464L113.384 73.408L117.928 81.312C118.227 81.8027 118.451 82.1547 118.6 82.368C118.75 82.56 118.888 82.688 119.016 82.752C119.166 82.7947 119.347 82.8373 119.56 82.88L121.32 83.104V84H115.208L110.76 75.904L109.192 77.408V81.312C109.192 82.0373 109.224 82.4747 109.288 82.624C109.352 82.752 109.555 82.8373 109.896 82.88L111.656 83.104V84H103.048V83.104L104.808 82.88C105.15 82.8373 105.352 82.752 105.416 82.624C105.48 82.4747 105.512 82.0373 105.512 81.312V63.008C105.512 62.2827 105.48 61.856 105.416 61.728C105.352 61.5787 105.15 61.4827 104.808 61.44L103.048 61.216Z" fill="#F5C755"/>
</svg>
